<?xml version="1.0" ?><!DOCTYPE svg  PUBLIC '-//W3C//DTD SVG 1.1//EN'  'http://www.w3.org/Graphics/SVG/1.1/DTD/svg11.dtd'><svg enable-background="new 0 0 91 91" height="91px" id="Layer_1" version="1.1" viewBox="0 0 91 91" width="91px" xml:space="preserve" xmlns="http://www.w3.org/2000/svg" xmlns:xlink="http://www.w3.org/1999/xlink"><g><g><g><path d="M14.395,45.556c0-8.878,7.222-16.1,16.096-16.1c8.876,0,16.099,7.222,16.099,16.1     c0,0.089-0.025,0.17-0.049,0.251h1.977c-0.025-0.081-0.051-0.162-0.051-0.251c0-3.818,1.342-7.324,3.57-10.087     c-3.912-8.342-12.308-13.71-21.546-13.71c-13.122,0-23.797,10.675-23.797,23.797c0,0.089-0.025,0.17-0.05,0.251h7.802     C14.42,45.726,14.395,45.645,14.395,45.556z" fill="#FAE58F"/><path d="M64.563,40.477c-2.801,0-5.078,2.279-5.078,5.079c0,0.089-0.023,0.17-0.049,0.251h10.258     c-0.027-0.081-0.051-0.162-0.051-0.251C69.643,42.756,67.363,40.477,64.563,40.477z" fill="#F9BA8F"/><path d="M50.074,45.807h7.803c-0.027-0.081-0.051-0.162-0.051-0.251c0-3.716,3.02-6.737,6.736-6.737     c3.715,0,6.74,3.021,6.74,6.737c0,0.089-0.025,0.17-0.051,0.251h7.805c-0.025-0.081-0.049-0.162-0.049-0.251     c0-7.962-6.48-14.441-14.445-14.441c-7.961,0-14.436,6.479-14.436,14.441C50.127,45.645,50.102,45.726,50.074,45.807z" fill="#F9BA8F"/><path d="M3.622,47.465C5.675,62.339,14.785,74.53,28.148,80.227h32.204c13.363-5.696,22.475-17.888,24.529-32.762     H3.622z" fill="#BAA1B6"/><path d="M27.004,79.497v7.567h29.945c2.508,0,4.545-2.04,4.545-4.549v-3.019     C61.275,79.596,27.226,79.596,27.004,79.497z" fill="#806875"/><path d="M30.491,40.477c-2.8,0-5.079,2.279-5.079,5.079c0,0.089-0.025,0.17-0.05,0.251H35.62     c-0.025-0.081-0.05-0.162-0.05-0.251C35.57,42.756,33.291,40.477,30.491,40.477z" fill="#FAE58F"/><path d="M44.982,45.807c-0.027-0.081-0.05-0.162-0.05-0.251c0-7.962-6.479-14.441-14.441-14.441     c-7.962,0-14.437,6.479-14.437,14.441c0,0.089-0.023,0.17-0.05,0.251h7.8c-0.027-0.081-0.05-0.162-0.05-0.251     c0-3.716,3.021-6.737,6.737-6.737c3.716,0,6.738,3.021,6.738,6.737c0,0.089-0.023,0.17-0.05,0.251H44.982z" fill="#FAE58F"/></g><g><path d="M79.836,47.749c-1.236,0-2.238-1.003-2.238-2.24c0-7.187-5.848-13.031-13.035-13.031     c-7.184,0-13.025,5.845-13.025,13.031c0,1.237-1.004,2.24-2.242,2.24c-1.234,0-2.238-1.003-2.238-2.24     c0-9.655,7.855-17.511,17.506-17.511c9.656,0,17.514,7.856,17.514,17.511C82.076,46.746,81.072,47.749,79.836,47.749z" fill="#434B56"/><path d="M70.473,47.749c-1.236,0-2.238-1.003-2.238-2.24c0-2.022-1.646-3.669-3.672-3.669     c-2.023,0-3.668,1.647-3.668,3.669c0,1.237-1.002,2.24-2.238,2.24s-2.238-1.003-2.238-2.24c0-4.493,3.654-8.149,8.145-8.149     c4.492,0,8.148,3.656,8.148,8.149C72.711,46.746,71.709,47.749,70.473,47.749z" fill="#434B56"/><path d="M45.761,47.749c-1.238,0-2.241-1.003-2.241-2.24c0-7.187-5.845-13.031-13.03-13.031     c-7.183,0-13.027,5.845-13.027,13.031c0,1.237-1.003,2.24-2.239,2.24c-1.236,0-2.239-1.003-2.239-2.24     c0-9.655,7.852-17.511,17.505-17.511C40.146,27.999,48,35.854,48,45.509C48,46.746,46.998,47.749,45.761,47.749z" fill="#434B56"/><path d="M36.399,47.749c-1.236,0-2.239-1.003-2.239-2.24c0-2.022-1.647-3.669-3.67-3.669     c-2.022,0-3.669,1.647-3.669,3.669c0,1.237-1.002,2.24-2.239,2.24c-1.238,0-2.241-1.003-2.241-2.24     c0-4.493,3.656-8.149,8.149-8.149c4.493,0,8.149,3.656,8.149,8.149C38.64,46.746,37.637,47.749,36.399,47.749z" fill="#434B56"/><path d="M5.864,47.749c-1.238,0-2.241-1.003-2.241-2.24c0-14.815,12.054-26.867,26.867-26.867     c10.618,0,20.261,6.275,24.572,15.982c0.5,1.132-0.008,2.455-1.141,2.956c-1.131,0.5-2.453-0.008-2.955-1.14     c-3.59-8.091-11.629-13.319-20.476-13.319c-12.345,0-22.388,10.043-22.388,22.388C8.103,46.746,7.101,47.749,5.864,47.749z" fill="#434B56"/><path d="M66.072,32.474c-0.588,0-1.174-0.229-1.613-0.687c-0.859-0.891-0.832-2.308,0.059-3.167L87.066,6.926     c0.893-0.858,2.311-0.829,3.166,0.06c0.857,0.893,0.83,2.31-0.061,3.167L67.625,31.847     C67.189,32.266,66.629,32.474,66.072,32.474z" fill="#434B56"/><path d="M60.582,32.063c-0.387,0-0.779-0.101-1.137-0.313c-1.064-0.629-1.418-2.001-0.789-3.066L74.439,1.949     c0.629-1.064,2.004-1.419,3.066-0.791c1.064,0.628,1.418,2.001,0.789,3.068L62.512,30.962     C62.094,31.67,61.348,32.063,60.582,32.063z" fill="#434B56"/><path d="M56.949,90.086H23.937v-9.078h4.479v4.601h28.533c1.73,0,3.135-1.407,3.135-3.14v-1.461h4.48v1.461     C64.564,86.669,61.148,90.086,56.949,90.086z" fill="#434B56"/><path d="M60.975,83.248h-7.963v-4.479h7.051c12.01-5.224,20.682-16.115,23.141-28.888H5.301     c2.457,12.772,11.126,23.666,23.138,28.888h8.207v4.479h-9.119L27.11,83.07C12.631,76.97,2.418,63.5,0.458,47.92l-0.316-2.519     h88.222l-0.318,2.519C86.084,63.5,75.869,76.97,61.391,83.07L60.975,83.248z" fill="#434B56"/><path d="M63.623,71.198c-0.801,0-1.574-0.431-1.977-1.185c-0.584-1.089-0.174-2.446,0.918-3.029     c4.342-2.321,7.518-6.381,8.717-11.136c0.303-1.197,1.52-1.927,2.719-1.624s1.926,1.521,1.623,2.72     c-1.506,5.976-5.496,11.074-10.947,13.989C64.34,71.113,63.979,71.198,63.623,71.198z" fill="#FFFFFF"/><path d="M58.287,74.673c-1.459,0-2.646-1.188-2.646-2.647c0-1.462,1.188-2.649,2.646-2.649     c1.461,0,2.648,1.188,2.648,2.649C60.936,73.485,59.748,74.673,58.287,74.673z" fill="#FFFFFF"/></g></g></g></svg>