<?xml version="1.0" encoding="UTF-8"?>
<svg version="1.0" viewBox="0 0 1335 818.43" xmlns="http://www.w3.org/2000/svg">
 <g transform="translate(341.15 -321.4)">
  <g stroke="#000" stroke-linecap="round" stroke-linejoin="round">
   <path d="m338.88 638.7l217.33 69.409-15.93 42.1-9.1028-2.2757" fill="none" stroke-width="33"/>
   <path transform="matrix(.99986 0 0 1.01 -115.05 205.31)" d="m1092.5 455.56a616.32 105.25 0 1 1 -1232.6 0 616.32 105.25 0 1 1 1232.6 0z" fill="#fff" fill-rule="evenodd" stroke-width="32.838"/>
   <path d="m338.88 696.73l-659.95-221.88-3.5841-55.925 460.83 161.57" fill="#fff" fill-rule="evenodd" stroke-width="33"/>
   <path d="m-218.21 337.9l-31.169 36.826 746.43 409.62 66.336-18.311-781.59-428.14z" fill="#fff" fill-rule="evenodd" stroke-width="33"/>
   <path d="m-80.981 744.52s-36.725-49.629-6.1038-81.819c30.621-32.19 196.39 4.8349 227.71 34.135s7.1034 71.578 7.1034 71.578" fill="none" stroke-width="33"/>
   <path d="m-257.35 679.67s153.16 273.48 335.66 320.87c29.738 7.7213 24.777 44.897-7.9649 95.579-32.225 49.882 522.27 15.93 522.27 15.93 28.041 0.2428-30.539-95.73 6.2581-107.75 192.82 8.4415 369.08-314.12 369.08-314.12l-128.1 51.928-142.42 31.31-649.71 7.5504-114.22-32.918-114.8-21.463-70.373-44.644-5.6892-2.2757z" fill-rule="evenodd" stroke-width="33"/>
   <path d="m483.39 559.05s-12.266-56.941 5.6892-63.719c57.119-21.564 195.79-14.856 244.64 17.068 17.579 11.49-7.1316 64.152-7.1316 64.152" fill="none" stroke-width="33"/>
   <path d="m767.48 636.65c102.08 8.6417 132.31 48.97-47.229 64.889" fill="none" stroke-width="33"/>
   <path transform="translate(-341.15 321.4)" d="m701.38 331.81l233.26 68.369-19.304 42.63-27.348-8.0434" fill="none" stroke-width="33"/>
  </g>
 </g>
</svg>
